<mxfile host="app.diagrams.net" modified="2022-03-20T02:22:25.820Z" agent="5.0 (Windows NT 10.0; Win64; x64) AppleWebKit/537.36 (KHTML, like Gecko) Chrome/99.0.4844.74 Safari/537.36" etag="4zl14vCvFmBwVeOIK611" version="17.1.3" type="github">
  <diagram id="ATRJTvlmgQRRKs04YTGU" name="Page-1">
    <mxGraphModel dx="1287" dy="784" grid="1" gridSize="10" guides="1" tooltips="1" connect="1" arrows="1" fold="1" page="1" pageScale="1" pageWidth="827" pageHeight="1169" math="0" shadow="0">
      <root>
        <mxCell id="0" />
        <mxCell id="1" parent="0" />
        <mxCell id="3iwQNjYx3opRPFHIMETP-24" value="&lt;p style=&quot;margin: 0px ; margin-top: 6px ; text-align: center&quot;&gt;&lt;b&gt;Task Info&lt;/b&gt;&lt;/p&gt;&lt;hr&gt;&lt;p style=&quot;margin: 0px ; margin-left: 8px&quot;&gt;+&amp;nbsp;&lt;span&gt;State&lt;/span&gt;: TaskState&lt;/p&gt;&lt;p style=&quot;margin: 0px ; margin-left: 8px&quot;&gt;+ UpdateTime: Time&lt;/p&gt;&lt;p style=&quot;margin: 0px ; margin-left: 8px&quot;&gt;+ MapIdx: int&lt;/p&gt;&lt;p style=&quot;margin: 0px ; margin-left: 8px&quot;&gt;+ ReduceIdx: int&lt;/p&gt;&lt;p style=&quot;margin: 0px ; margin-left: 8px&quot;&gt;&lt;br&gt;&lt;/p&gt;&lt;p style=&quot;margin: 0px ; margin-left: 8px&quot;&gt;+ Worker No: int&lt;/p&gt;&lt;p style=&quot;margin: 0px ; margin-left: 8px&quot;&gt;&lt;br&gt;&lt;/p&gt;&lt;p style=&quot;margin: 0px ; margin-left: 8px&quot;&gt;+ IsMapTask: bool&lt;/p&gt;&lt;p style=&quot;margin: 0px ; margin-left: 8px&quot;&gt;&lt;br&gt;&lt;/p&gt;&lt;p style=&quot;margin: 0px ; margin-left: 8px&quot;&gt;+ FileName: string&lt;/p&gt;&lt;p style=&quot;margin: 0px ; margin-left: 8px&quot;&gt;+ NReduce: int&lt;/p&gt;&lt;p style=&quot;margin: 0px ; margin-left: 8px&quot;&gt;+ TempFileName: []stirng&lt;/p&gt;&lt;div&gt;&lt;br&gt;&lt;/div&gt;" style="align=left;overflow=fill;html=1;dropTarget=0;" vertex="1" parent="1">
          <mxGeometry x="667" y="40" width="163" height="210" as="geometry" />
        </mxCell>
        <mxCell id="3iwQNjYx3opRPFHIMETP-25" value="" style="shape=component;jettyWidth=8;jettyHeight=4;" vertex="1" parent="3iwQNjYx3opRPFHIMETP-24">
          <mxGeometry x="1" width="20" height="20" relative="1" as="geometry">
            <mxPoint x="-24" y="4" as="offset" />
          </mxGeometry>
        </mxCell>
        <mxCell id="3iwQNjYx3opRPFHIMETP-26" value="Worker" style="shape=umlLifeline;participant=umlControl;perimeter=lifelinePerimeter;whiteSpace=wrap;html=1;container=1;collapsible=0;recursiveResize=0;verticalAlign=top;spacingTop=36;outlineConnect=0;size=70;" vertex="1" parent="1">
          <mxGeometry x="366" y="80" width="95" height="740" as="geometry" />
        </mxCell>
        <mxCell id="3iwQNjYx3opRPFHIMETP-54" value="" style="html=1;points=[];perimeter=orthogonalPerimeter;" vertex="1" parent="3iwQNjYx3opRPFHIMETP-26">
          <mxGeometry x="43" y="430" width="10" height="50" as="geometry" />
        </mxCell>
        <mxCell id="3iwQNjYx3opRPFHIMETP-55" value="" style="html=1;points=[];perimeter=orthogonalPerimeter;" vertex="1" parent="3iwQNjYx3opRPFHIMETP-26">
          <mxGeometry x="40" y="540" width="20" height="60" as="geometry" />
        </mxCell>
        <mxCell id="3iwQNjYx3opRPFHIMETP-60" value="" style="html=1;points=[];perimeter=orthogonalPerimeter;" vertex="1" parent="3iwQNjYx3opRPFHIMETP-26">
          <mxGeometry x="40" y="630" width="20" height="40" as="geometry" />
        </mxCell>
        <mxCell id="3iwQNjYx3opRPFHIMETP-71" value="" style="html=1;points=[];perimeter=orthogonalPerimeter;" vertex="1" parent="3iwQNjYx3opRPFHIMETP-26">
          <mxGeometry x="43" y="680" width="10" height="40" as="geometry" />
        </mxCell>
        <mxCell id="3iwQNjYx3opRPFHIMETP-75" value="" style="endArrow=classic;html=1;rounded=0;entryX=1.007;entryY=0.341;entryDx=0;entryDy=0;entryPerimeter=0;" edge="1" parent="3iwQNjYx3opRPFHIMETP-26" target="3iwQNjYx3opRPFHIMETP-79">
          <mxGeometry width="50" height="50" relative="1" as="geometry">
            <mxPoint x="54" y="700" as="sourcePoint" />
            <mxPoint x="100" y="230" as="targetPoint" />
            <Array as="points">
              <mxPoint x="200" y="700" />
              <mxPoint x="200" y="259" />
            </Array>
          </mxGeometry>
        </mxCell>
        <mxCell id="3iwQNjYx3opRPFHIMETP-76" value="" style="html=1;points=[];perimeter=orthogonalPerimeter;" vertex="1" parent="3iwQNjYx3opRPFHIMETP-26">
          <mxGeometry x="43" y="250" width="10" height="60" as="geometry" />
        </mxCell>
        <mxCell id="3iwQNjYx3opRPFHIMETP-53" value="Map&lt;br&gt;&lt;br&gt;Reduce" style="html=1;points=[];perimeter=orthogonalPerimeter;" vertex="1" parent="3iwQNjYx3opRPFHIMETP-26">
          <mxGeometry x="18" y="360" width="60" height="60" as="geometry" />
        </mxCell>
        <mxCell id="3iwQNjYx3opRPFHIMETP-79" value="always" style="ellipse;shape=umlControl;whiteSpace=wrap;html=1;" vertex="1" parent="3iwQNjYx3opRPFHIMETP-26">
          <mxGeometry x="53" y="240" width="55" height="56" as="geometry" />
        </mxCell>
        <mxCell id="3iwQNjYx3opRPFHIMETP-77" value="" style="endArrow=classic;html=1;rounded=0;entryX=1.022;entryY=0.587;entryDx=0;entryDy=0;entryPerimeter=0;exitX=1.017;exitY=0.517;exitDx=0;exitDy=0;exitPerimeter=0;" edge="1" parent="3iwQNjYx3opRPFHIMETP-26" source="3iwQNjYx3opRPFHIMETP-53" target="3iwQNjYx3opRPFHIMETP-79">
          <mxGeometry width="50" height="50" relative="1" as="geometry">
            <mxPoint x="140" y="420" as="sourcePoint" />
            <mxPoint x="110" y="240" as="targetPoint" />
            <Array as="points">
              <mxPoint x="140" y="391" />
              <mxPoint x="140" y="273" />
            </Array>
          </mxGeometry>
        </mxCell>
        <mxCell id="3iwQNjYx3opRPFHIMETP-86" value="" style="edgeStyle=elbowEdgeStyle;elbow=horizontal;endArrow=classic;html=1;rounded=0;" edge="1" parent="3iwQNjYx3opRPFHIMETP-26">
          <mxGeometry width="50" height="50" relative="1" as="geometry">
            <mxPoint x="64" y="640" as="sourcePoint" />
            <mxPoint x="54" y="570" as="targetPoint" />
            <Array as="points">
              <mxPoint x="134" y="570" />
            </Array>
          </mxGeometry>
        </mxCell>
        <mxCell id="3iwQNjYx3opRPFHIMETP-27" value="Coordinator" style="shape=umlLifeline;participant=umlControl;perimeter=lifelinePerimeter;whiteSpace=wrap;html=1;container=1;collapsible=0;recursiveResize=0;verticalAlign=top;spacingTop=36;outlineConnect=0;size=90;" vertex="1" parent="1">
          <mxGeometry x="40" y="80" width="80" height="740" as="geometry" />
        </mxCell>
        <mxCell id="3iwQNjYx3opRPFHIMETP-29" value="Regist&lt;br&gt;Worker" style="html=1;points=[];perimeter=orthogonalPerimeter;" vertex="1" parent="3iwQNjYx3opRPFHIMETP-27">
          <mxGeometry x="10" y="130" width="60" height="60" as="geometry" />
        </mxCell>
        <mxCell id="3iwQNjYx3opRPFHIMETP-33" value="Assign&lt;br&gt;Task" style="html=1;points=[];perimeter=orthogonalPerimeter;" vertex="1" parent="3iwQNjYx3opRPFHIMETP-27">
          <mxGeometry x="10" y="270" width="60" height="180" as="geometry" />
        </mxCell>
        <mxCell id="3iwQNjYx3opRPFHIMETP-56" value="Restart&lt;br&gt;Worker" style="html=1;points=[];perimeter=orthogonalPerimeter;" vertex="1" parent="3iwQNjYx3opRPFHIMETP-27">
          <mxGeometry x="10" y="550" width="60" height="160" as="geometry" />
        </mxCell>
        <mxCell id="3iwQNjYx3opRPFHIMETP-30" value="" style="html=1;verticalAlign=bottom;endArrow=block;entryX=1;entryY=0;rounded=0;" edge="1" target="3iwQNjYx3opRPFHIMETP-29" parent="1" source="3iwQNjYx3opRPFHIMETP-26">
          <mxGeometry x="0.0143" y="-10" relative="1" as="geometry">
            <mxPoint x="145" y="210" as="sourcePoint" />
            <mxPoint as="offset" />
          </mxGeometry>
        </mxCell>
        <mxCell id="3iwQNjYx3opRPFHIMETP-31" value="Worker Info" style="html=1;verticalAlign=bottom;endArrow=open;dashed=1;endSize=8;rounded=0;" edge="1" parent="1" target="3iwQNjYx3opRPFHIMETP-26">
          <mxGeometry x="-0.0143" relative="1" as="geometry">
            <mxPoint x="400" y="267" as="targetPoint" />
            <mxPoint x="110" y="267" as="sourcePoint" />
            <mxPoint as="offset" />
          </mxGeometry>
        </mxCell>
        <mxCell id="3iwQNjYx3opRPFHIMETP-34" value="callback" style="html=1;verticalAlign=bottom;endArrow=block;entryX=1;entryY=0;rounded=0;exitX=-0.1;exitY=0.344;exitDx=0;exitDy=0;exitPerimeter=0;" edge="1" target="3iwQNjYx3opRPFHIMETP-33" parent="1" source="3iwQNjYx3opRPFHIMETP-76">
          <mxGeometry relative="1" as="geometry">
            <mxPoint x="390" y="310" as="sourcePoint" />
          </mxGeometry>
        </mxCell>
        <mxCell id="3iwQNjYx3opRPFHIMETP-35" value="task" style="html=1;verticalAlign=bottom;endArrow=open;dashed=1;endSize=8;rounded=0;startArrow=none;exitX=1;exitY=0;exitDx=0;exitDy=0;entryX=0.006;entryY=0.672;entryDx=0;entryDy=0;entryPerimeter=0;" edge="1" source="3iwQNjYx3opRPFHIMETP-80" parent="1" target="3iwQNjYx3opRPFHIMETP-53">
          <mxGeometry relative="1" as="geometry">
            <mxPoint x="380" y="480" as="targetPoint" />
            <mxPoint x="320" y="340" as="sourcePoint" />
            <Array as="points" />
          </mxGeometry>
        </mxCell>
        <mxCell id="3iwQNjYx3opRPFHIMETP-39" value="&lt;p style=&quot;margin: 0px ; margin-top: 6px ; text-align: center&quot;&gt;&lt;b&gt;Worker Info&lt;/b&gt;&lt;/p&gt;&lt;hr&gt;&lt;p style=&quot;margin: 0px ; margin-left: 8px&quot;&gt;+&amp;nbsp;&lt;span&gt;State&lt;/span&gt;: WorkerState&lt;/p&gt;&lt;p style=&quot;margin: 0px ; margin-left: 8px&quot;&gt;+ No: int&lt;/p&gt;&lt;p style=&quot;margin: 0px ; margin-left: 8px&quot;&gt;+ RestartTimes: int&lt;/p&gt;&lt;p style=&quot;margin: 0px ; margin-left: 8px&quot;&gt;+ LastAliveTime: Time&lt;/p&gt;&lt;p style=&quot;margin: 0px ; margin-left: 8px&quot;&gt;&lt;br&gt;&lt;/p&gt;&lt;div&gt;&lt;br&gt;&lt;/div&gt;" style="align=left;overflow=fill;html=1;dropTarget=0;" vertex="1" parent="1">
          <mxGeometry x="678.5" y="280" width="140" height="100" as="geometry" />
        </mxCell>
        <mxCell id="3iwQNjYx3opRPFHIMETP-40" value="" style="shape=component;jettyWidth=8;jettyHeight=4;" vertex="1" parent="3iwQNjYx3opRPFHIMETP-39">
          <mxGeometry x="1" width="20" height="20" relative="1" as="geometry">
            <mxPoint x="-24" y="4" as="offset" />
          </mxGeometry>
        </mxCell>
        <mxCell id="3iwQNjYx3opRPFHIMETP-47" value="" style="html=1;verticalAlign=bottom;endArrow=none;dashed=1;endSize=8;rounded=0;entryX=0;entryY=0.5;entryDx=0;entryDy=0;" edge="1" parent="1" target="3iwQNjYx3opRPFHIMETP-80">
          <mxGeometry relative="1" as="geometry">
            <mxPoint x="200" y="367" as="targetPoint" />
            <mxPoint x="110" y="500" as="sourcePoint" />
          </mxGeometry>
        </mxCell>
        <mxCell id="3iwQNjYx3opRPFHIMETP-52" value="need restart" style="html=1;verticalAlign=bottom;endArrow=open;dashed=1;endSize=8;exitX=1;exitY=1;rounded=0;startArrow=none;exitDx=0;exitDy=0;" edge="1" parent="1" source="3iwQNjYx3opRPFHIMETP-80">
          <mxGeometry x="-0.0753" y="-20" relative="1" as="geometry">
            <mxPoint x="400" y="520" as="targetPoint" />
            <mxPoint x="270" y="449.5" as="sourcePoint" />
            <mxPoint as="offset" />
          </mxGeometry>
        </mxCell>
        <mxCell id="3iwQNjYx3opRPFHIMETP-57" value="cur worker info" style="html=1;verticalAlign=bottom;endArrow=block;rounded=0;" edge="1" parent="1">
          <mxGeometry x="0.1216" relative="1" as="geometry">
            <mxPoint x="406" y="640" as="sourcePoint" />
            <mxPoint x="110" y="640" as="targetPoint" />
            <mxPoint as="offset" />
          </mxGeometry>
        </mxCell>
        <mxCell id="3iwQNjYx3opRPFHIMETP-65" value="" style="endArrow=none;dashed=1;html=1;dashPattern=1 3;strokeWidth=2;rounded=0;entryX=0;entryY=0.5;entryDx=0;entryDy=0;" edge="1" parent="1" source="3iwQNjYx3opRPFHIMETP-56" target="3iwQNjYx3opRPFHIMETP-81">
          <mxGeometry width="50" height="50" relative="1" as="geometry">
            <mxPoint x="110" y="740" as="sourcePoint" />
            <mxPoint x="206.3599999999999" y="719.3499999999999" as="targetPoint" />
          </mxGeometry>
        </mxCell>
        <mxCell id="3iwQNjYx3opRPFHIMETP-68" value="No" style="html=1;verticalAlign=bottom;endArrow=open;dashed=1;endSize=8;exitX=1;exitY=0;rounded=0;startArrow=none;exitDx=0;exitDy=0;" edge="1" parent="1" source="3iwQNjYx3opRPFHIMETP-81">
          <mxGeometry x="0.0589" relative="1" as="geometry">
            <mxPoint x="410" y="740" as="targetPoint" />
            <mxPoint x="282" y="710.36" as="sourcePoint" />
            <Array as="points" />
            <mxPoint as="offset" />
          </mxGeometry>
        </mxCell>
        <mxCell id="3iwQNjYx3opRPFHIMETP-69" value="Yes" style="html=1;verticalAlign=bottom;endArrow=open;dashed=1;endSize=8;exitX=1;exitY=1;rounded=0;startArrow=none;exitDx=0;exitDy=0;" edge="1" parent="1" source="3iwQNjYx3opRPFHIMETP-81" target="3iwQNjYx3opRPFHIMETP-26">
          <mxGeometry x="0.0589" relative="1" as="geometry">
            <mxPoint x="393" y="760" as="targetPoint" />
            <mxPoint x="280" y="761.3600000000001" as="sourcePoint" />
            <Array as="points">
              <mxPoint x="290" y="780" />
            </Array>
            <mxPoint as="offset" />
          </mxGeometry>
        </mxCell>
        <mxCell id="3iwQNjYx3opRPFHIMETP-80" value="over time" style="rhombus;whiteSpace=wrap;html=1;" vertex="1" parent="1">
          <mxGeometry x="197" y="460" width="80" height="80" as="geometry" />
        </mxCell>
        <mxCell id="3iwQNjYx3opRPFHIMETP-81" value="success" style="rhombus;whiteSpace=wrap;html=1;" vertex="1" parent="1">
          <mxGeometry x="197" y="720" width="80" height="80" as="geometry" />
        </mxCell>
      </root>
    </mxGraphModel>
  </diagram>
</mxfile>
